<?xml version='1.0' encoding='UTF-8'?>
<!-- Created with Inkscape (http://www.inkscape.org/) -->
<svg xmlns:inkscape="http://www.inkscape.org/namespaces/inkscape" xmlns:sodipodi="http://sodipodi.sourceforge.net/DTD/sodipodi-0.dtd" xmlns="http://www.w3.org/2000/svg" xmlns:svg="http://www.w3.org/2000/svg" version="1.1" id="svg1" width="1027.675368" height="461.786700" viewBox="131.958316 65.969529 1027.675368 461.786700" sodipodi:docname="VF-logotype-black (1).pdf">
  <defs id="defs1">
    <clipPath clipPathUnits="userSpaceOnUse" id="clipPath2">
      <path d="M 0,443.795 H 968.694 V 0 H 0 Z" transform="translate(-366.17181,-376.64291)" id="path2"/>
    </clipPath>
    <clipPath clipPathUnits="userSpaceOnUse" id="clipPath4">
      <path d="M 0,443.795 H 968.694 V 0 H 0 Z" transform="translate(-133.0561,-221.23281)" id="path4"/>
    </clipPath>
    <clipPath clipPathUnits="userSpaceOnUse" id="clipPath6">
      <path d="M 0,443.795 H 968.694 V 0 H 0 Z" transform="translate(-236.66311,-91.725105)" id="path6"/>
    </clipPath>
    <clipPath clipPathUnits="userSpaceOnUse" id="clipPath8">
      <path d="M 0,443.795 H 968.694 V 0 H 0 Z" transform="translate(-340.26951,-65.822602)" id="path8"/>
    </clipPath>
    <clipPath clipPathUnits="userSpaceOnUse" id="clipPath10">
      <path d="M 0,443.795 H 968.694 V 0 H 0 Z" transform="translate(-246.3559,-208.43691)" id="path10"/>
    </clipPath>
  </defs>
  <sodipodi:namedview id="namedview1" pagecolor="#ffffff" bordercolor="#000000" borderopacity="0.25" inkscape:showpageshadow="2" inkscape:pageopacity="0.0" inkscape:pagecheckerboard="0" inkscape:deskcolor="#d1d1d1">
    <inkscape:page x="0" y="0" inkscape:label="1" id="page1" width="1291.592" height="591.72668" margin="0" bleed="0"/>
  </sodipodi:namedview>
  <g id="layer-MC0" inkscape:groupmode="layer" inkscape:label="Layer 1">
    <path id="path1" d="m 0,0 c 0,-8.955 -7.235,-16.19 -16.19,-16.19 -8.953,0 -16.188,7.235 -16.188,16.19 0,8.954 7.235,16.188 16.188,16.188 C -7.235,16.188 0,8.954 0,0" style="fill:#000000;fill-opacity:1;fill-rule:nonzero;stroke:none" transform="matrix(1.3333333,0,0,-1.3333333,488.22907,89.536133)" clip-path="url(#clipPath2)"/>
    <path id="path3" d="m 0,0 c 0,-8.954 -7.234,-16.187 -16.188,-16.187 -8.954,0 -16.189,7.233 -16.189,16.187 0,8.955 7.235,16.188 16.189,16.188 C -7.234,16.188 0,8.955 0,0" style="fill:#000000;fill-opacity:1;fill-rule:nonzero;stroke:none" transform="matrix(1.3333333,0,0,-1.3333333,177.40813,296.7496)" clip-path="url(#clipPath4)"/>
    <path id="path5" d="m 0,0 c 0,-8.955 -7.233,-16.189 -16.188,-16.189 -8.955,0 -16.189,7.234 -16.189,16.189 0,8.954 7.234,16.187 16.189,16.187 C -7.233,16.187 0,8.954 0,0" style="fill:#000000;fill-opacity:1;fill-rule:nonzero;stroke:none" transform="matrix(1.3333333,0,0,-1.3333333,315.5508,469.42653)" clip-path="url(#clipPath6)"/>
    <path id="path7" d="m 0,0 c 0,-8.954 -7.235,-16.189 -16.188,-16.189 -8.955,0 -16.189,7.235 -16.189,16.189 0,8.955 7.234,16.189 16.189,16.189 C -7.235,16.189 0,8.955 0,0" style="fill:#000000;fill-opacity:1;fill-rule:nonzero;stroke:none" transform="matrix(1.3333333,0,0,-1.3333333,453.69267,503.9632)" clip-path="url(#clipPath8)"/>
    <path id="path9" d="m 0,0 -21.713,55.152 h -9.895 l 31.396,-77.4 31.385,77.4 h -9.349 z m 37.851,-20.104 h 9.036 v 49.668 h -9.036 z m 4.512,71.705 c -3.329,0 -6.12,-2.793 -6.12,-6.122 0,-3.339 2.791,-6.131 6.12,-6.131 3.339,0 6.131,2.792 6.131,6.131 0,3.329 -2.792,6.122 -6.131,6.122 M 81.722,8.812 c -8.934,2.015 -12.041,3.765 -12.041,7.529 0,3.551 3.127,6.343 9.461,6.343 7.527,0 12.879,-4.948 12.879,-4.948 l 5.656,6.375 c 0,0 -6.809,6.749 -18.535,6.749 -11.069,0 -18.273,-7.103 -18.273,-14.307 0,-9.349 7.527,-13.538 18.171,-15.693 7.629,-1.507 11.282,-3.652 11.282,-7.952 0,-3.582 -3.612,-6.133 -10.452,-6.133 -9.703,0 -15.349,8.065 -15.349,8.065 l -6.232,-5.808 c 0,0 7.021,-10.422 21.581,-10.422 10.442,0 19.376,5.262 19.376,14.51 0,10.107 -8.074,13.568 -17.524,15.692 m 50.296,22.048 c -14.944,0 -24.829,-11.616 -24.829,-26.125 0,-14.732 10.856,-26.125 25.901,-26.125 13.122,0 20.651,9.785 20.651,9.785 l -5.697,5.908 c 0,0 -5.16,-7.304 -14.954,-7.304 -9.349,0 -16.553,6.981 -17.089,14.509 h 40.096 c 0.112,1.182 0.112,1.933 0.112,2.904 0,16.016 -10.319,26.448 -24.191,26.448 M 116.213,9.036 c 0.649,5.159 5.059,13.436 15.805,13.436 10.006,0 15.055,-7.851 15.378,-13.436 z m 88.248,13.324 c 0,0 -4.837,8.5 -16.765,8.5 -13.436,0 -24.08,-11.504 -24.08,-26.125 0,-14.62 10.644,-26.125 24.08,-26.125 9.136,0 14.297,5.262 16.016,7.528 v -6.88 c 0,-11.179 -6.556,-16.988 -17.089,-16.988 -10.218,0 -16.239,7.84 -16.239,7.84 l -5.483,-6.767 c 0,0 8.063,-9.46 21.722,-9.46 14.398,0 26.125,8.6 26.125,25.801 v 49.88 h -8.287 z m -0.749,-26.984 c 0,0 -4.725,-8.377 -14.62,-8.377 -10.108,0 -16.452,7.952 -16.452,17.736 0,9.784 6.344,17.737 16.452,17.737 9.784,0 14.62,-8.387 14.62,-8.387 z m 31.174,26.56 v 7.628 h -8.388 v -49.668 h 9.025 v 34.189 c 0,0 2.873,8.387 11.767,8.387 4.31,0 6.91,-1.578 6.91,-1.578 l 1.751,8.67 c 0,0 -3.117,1.296 -7.204,1.296 -10.269,0 -13.861,-8.924 -13.861,-8.924 m 47.27,8.924 c -11.929,0 -18.597,-5.059 -18.597,-5.059 l 3.764,-7.528 c 0,0 5.717,4.199 14.833,4.199 3.976,0 12.577,-1.397 12.577,-11.716 V 8.064 c 0,0 -5.808,4.087 -14.945,4.087 -11.18,0 -19.668,-6.88 -19.668,-16.552 0,-10.755 9.571,-16.989 18.485,-16.989 11.29,0 16.886,8.49 16.886,8.49 v -7.204 h 8.277 v 32.681 c 0,9.247 -6.991,18.283 -21.612,18.283 m 12.577,-36.769 c 0,0 -5.374,-7.528 -14.186,-7.528 -5.595,0 -11.403,2.581 -11.403,9.036 0,5.16 4.847,9.025 12.588,9.025 8.053,0 13.001,-3.551 13.001,-3.551 z m 59.447,29.342 c 0,0 -5.05,7.427 -16.017,7.427 -13.436,0 -24.081,-11.504 -24.081,-26.125 0,-14.62 10.645,-26.125 24.081,-26.125 11.929,0 16.777,8.49 16.777,8.49 v -7.204 h 8.274 v 77.067 h -9.034 z m 0,-27.834 c 0,0 -4.726,-8.6 -14.621,-8.6 -10.107,0 -16.441,7.952 -16.441,17.736 0,9.784 6.556,17.737 16.441,17.737 9.895,0 14.621,-8.601 14.621,-8.601 z m 56.756,-15.703 h 9.024 V 9.783 h 30.39 v 8.601 h -30.39 v 28.168 h 32.357 v 8.6 h -41.381 z m 84.007,15.268 c 0,0 -3.976,-8.165 -12.363,-8.165 -6.668,0 -11.929,3.651 -11.929,12.141 v 30.424 h -9.036 V -2.368 c 0,-12.253 8.813,-19.022 18.709,-19.022 10.745,0 15.267,8.925 15.267,8.925 v -7.639 h 8.378 v 49.668 h -9.026 z m 47.898,35.696 c -10.745,0 -15.257,-8.287 -15.257,-8.287 v 6.991 h -8.388 v -49.668 h 9.026 v 34.189 c 0,0 4.299,8.387 12.363,8.387 6.668,0 11.938,-3.653 11.938,-12.152 v -30.424 h 9.027 v 31.931 c 0,12.253 -8.814,19.033 -18.709,19.033 m 69.784,26.103 v -33.53 c 0,0 -5.049,7.427 -16.018,7.427 -13.436,0 -24.079,-11.504 -24.079,-26.125 0,-14.62 10.643,-26.125 24.079,-26.125 11.93,0 16.766,8.49 16.766,8.49 v -7.204 h 8.286 v 77.067 z m 0,-61.364 c 0,0 -4.725,-8.6 -14.62,-8.6 -10.109,0 -16.452,7.952 -16.452,17.736 0,9.784 6.566,17.737 16.452,17.737 9.895,0 14.62,-8.601 14.62,-8.601 z" style="fill:#000000;fill-opacity:1;fill-rule:nonzero;stroke:none" transform="matrix(1.3333333,0,0,-1.3333333,328.47453,313.8108)" clip-path="url(#clipPath10)"/>
  </g>
</svg>
